<?xml version="1.0" standalone="no"?>
<!DOCTYPE svg PUBLIC "-//W3C//DTD SVG 20010904//EN"
 "http://www.w3.org/TR/2001/REC-SVG-20010904/DTD/svg10.dtd">
<svg version="1.0" xmlns="http://www.w3.org/2000/svg"
 width="325.000000pt" height="260.000000pt" viewBox="0 0 325.000000 260.000000"
 preserveAspectRatio="xMidYMid meet">

<g transform="translate(0.000000,260.000000) scale(0.100000,-0.100000)"
fill="#000000" stroke="none">
<path d="M1712 2110 c-12 -5 -58 -14 -102 -19 -63 -8 -160 -41 -160 -54 0 -1
61 -2 136 -2 l136 0 -6 -65 c-15 -154 -16 -158 -46 -169 -16 -5 -31 -7 -33 -4
-3 2 -16 -2 -29 -10 -12 -8 -47 -22 -76 -32 -57 -18 -67 -31 -12 -15 18 5 37
7 41 4 5 -3 19 2 31 10 13 8 84 33 158 56 143 45 147 47 137 56 -3 3 -28 -1
-55 -10 -41 -14 -54 -15 -77 -4 l-27 12 7 128 c4 70 6 128 4 127 -2 0 -14 -4
-27 -9z m42 -269 c3 -5 -1 -11 -9 -15 -9 -3 -15 0 -15 9 0 16 16 20 24 6z"/>
<path d="M1972 1945 c-10 -12 -34 -14 -102 -13 -58 2 -93 -1 -101 -9 -9 -9 -7
-11 10 -6 13 3 61 -5 108 -18 l85 -24 -7 -65 c-4 -36 -8 -66 -10 -68 -2 -2
-22 7 -44 20 -26 14 -41 30 -41 42 0 19 0 19 -14 1 -8 -11 -12 -25 -9 -32 3
-8 -2 -11 -16 -8 -12 2 -19 0 -16 -6 4 -5 10 -7 15 -4 5 3 14 -5 21 -17 12
-22 11 -22 -6 -8 -17 14 -18 14 -6 -8 7 -12 15 -21 19 -18 4 2 8 -4 8 -14 0
-14 -4 -16 -12 -9 -8 7 -14 6 -19 -1 -5 -8 -11 -8 -21 1 -11 9 -14 9 -14 0 0
-7 -5 -9 -12 -5 -8 5 -9 2 -5 -9 3 -10 2 -17 -3 -17 -6 0 -10 6 -10 13 0 6
-10 23 -21 37 l-20 25 17 -35 c14 -29 15 -33 2 -22 -13 10 -17 10 -21 -2 -4
-9 1 -17 11 -19 15 -4 15 -5 1 -6 -9 0 -23 7 -30 16 -8 9 -9 14 -3 10 15 -9
25 15 14 33 -6 9 -10 7 -15 -9 -3 -12 -11 -19 -16 -16 -5 3 -6 -2 -2 -11 5
-13 3 -15 -8 -8 -24 15 -38 13 -32 -4 5 -11 3 -13 -8 -6 -22 14 -38 13 -32 -2
3 -9 -2 -12 -16 -9 -12 2 -21 -1 -21 -6 0 -6 -5 -7 -12 -3 -6 4 -8 3 -4 -4 4
-7 -5 -9 -26 -8 -41 4 -52 -2 -38 -19 13 -16 9 -18 -51 -34 -56 -15 -80 -50
-78 -113 l2 -43 6 52 c4 29 13 59 21 67 8 8 119 39 245 70 210 51 231 54 242
39 14 -18 -1 -48 -19 -37 -6 4 -5 -3 2 -16 6 -12 9 -28 6 -36 -3 -9 1 -28 9
-45 24 -45 10 -34 -25 21 -18 28 -34 50 -36 50 -4 0 29 -63 63 -117 28 -47 2
-21 -33 32 -20 30 -39 55 -41 55 -2 0 6 -19 17 -42 11 -24 14 -34 6 -23 -39
53 -45 56 -22 11 34 -64 27 -69 -13 -9 -35 55 -41 51 -11 -7 28 -54 17 -51
-16 5 -32 56 -42 59 -14 5 27 -54 25 -74 -4 -27 -32 53 -39 57 -21 13 21 -50
13 -56 -15 -12 -28 46 -33 46 -14 -1 12 -33 12 -36 0 -18 -9 11 -22 29 -31 40
-15 18 -15 17 0 -12 22 -46 18 -52 -11 -18 l-26 30 17 -35 18 -35 -28 25 -28
25 13 -25 c7 -14 18 -28 24 -32 8 -6 8 -8 -1 -8 -6 0 -21 12 -33 28 l-21 27 6
-25 6 -25 -21 25 -21 25 12 -25 c7 -14 17 -28 23 -32 7 -5 7 -8 -2 -8 -8 0
-22 10 -33 23 -17 20 -18 20 -12 2 l6 -20 -23 20 -23 20 12 -22 c6 -13 19 -23
29 -24 11 0 13 -2 4 -6 -7 -3 -25 5 -39 18 -19 17 -25 19 -20 7 7 -21 -20 -33
-39 -17 -12 10 -13 8 -8 -7 7 -19 7 -19 -14 0 -12 11 -22 15 -22 11 0 -5 -6 0
-14 11 -13 17 -15 18 -21 2 -8 -21 2 -41 17 -32 6 4 9 1 6 -7 -2 -8 -25 -18
-49 -23 -54 -10 -88 -51 -96 -115 -3 -23 -8 -41 -12 -41 -3 0 -32 21 -63 46
-47 37 -58 51 -58 75 0 19 5 29 15 29 8 0 15 7 15 15 0 11 -11 15 -39 15 -22
0 -48 3 -58 6 -15 5 -15 4 -3 -5 13 -9 11 -11 -7 -11 -28 0 -53 10 -53 22 0 5
10 7 23 4 l22 -6 -22 11 c-14 7 -23 21 -23 34 0 21 -4 22 -43 18 -31 -4 -46
-1 -56 11 -20 24 -34 19 -27 -9 4 -17 2 -25 -6 -26 -7 0 -3 -4 10 -9 16 -7 22
-18 22 -40 0 -29 2 -30 45 -30 44 0 45 -1 39 -25 -6 -25 -5 -25 35 -19 34 5
41 4 41 -10 0 -9 5 -16 11 -16 5 0 7 5 3 12 -4 7 -3 8 5 4 6 -4 9 -11 6 -16
-3 -4 2 -10 10 -14 23 -8 18 -23 -9 -28 -20 -4 -22 -1 -18 16 5 20 5 20 -12 4
-10 -10 -22 -18 -27 -18 -6 0 -8 -3 -6 -7 3 -5 -6 -9 -19 -10 -45 -4 -53 -6
-49 -14 3 -4 -12 -7 -32 -7 -21 0 -39 -5 -41 -11 -2 -6 -11 -11 -19 -11 -9 0
-14 -2 -11 -5 4 -5 234 46 268 59 8 3 24 -2 35 -12 24 -20 39 -52 25 -52 -6 0
-10 7 -10 15 0 13 -2 14 -14 3 -8 -7 -12 -16 -10 -19 2 -4 -3 -9 -11 -13 -8
-3 -17 0 -21 6 -5 7 -12 5 -21 -7 -12 -17 -13 -16 -14 16 0 27 -2 30 -8 14 -5
-11 -7 -23 -5 -26 2 -4 -3 -12 -11 -19 -8 -7 -12 -17 -8 -24 3 -6 3 -8 -2 -4
-4 4 -14 3 -22 -3 -19 -16 -16 1 4 25 10 12 4 9 -12 -6 -21 -19 -35 -24 -44
-18 -16 9 -53 -9 -45 -22 3 -4 0 -8 -5 -8 -6 0 -11 5 -11 10 0 7 -8 6 -22 -2
-28 -15 -51 -16 -60 -3 -4 6 -8 2 -8 -7 0 -11 -8 -18 -19 -18 -11 0 -22 -4
-25 -9 -3 -4 54 2 127 15 120 20 200 33 220 34 4 0 7 5 7 11 0 7 -10 9 -25 7
-42 -9 -28 11 18 22 23 6 50 14 60 16 27 8 47 -14 47 -52 0 -28 28 -117 65
-206 6 -16 -1 -18 -83 -18 -88 0 -90 1 -84 22 5 19 6 19 11 5 5 -14 10 -12 25
13 10 17 20 29 24 26 3 -3 -2 -14 -11 -24 -22 -24 -22 -38 0 -21 14 12 16 12
8 0 -5 -10 -4 -12 3 -7 17 10 15 49 -4 72 -8 10 -12 13 -9 6 8 -15 -23 -54
-36 -47 -4 3 -12 -3 -18 -12 -8 -15 -10 -15 -11 -2 0 8 5 20 10 25 8 8 6 15
-5 24 -8 7 -15 23 -15 36 0 19 7 24 38 29 79 13 92 17 92 26 0 5 -11 7 -25 3
-21 -5 -25 -3 -25 14 0 12 -4 23 -9 27 -6 3 -8 -4 -6 -15 2 -12 0 -18 -6 -14
-5 3 -21 -1 -34 -10 -24 -16 -25 -16 -14 11 10 27 10 27 -10 9 -11 -10 -17
-24 -14 -34 4 -9 2 -13 -5 -8 -6 3 -14 1 -18 -5 -5 -8 -3 -9 6 -4 10 6 12 4 7
-9 -4 -10 -3 -15 3 -11 17 10 11 -12 -7 -26 -9 -8 -18 -13 -20 -11 -1 1 -4 1
-5 1 -2 -1 -29 -2 -60 -3 -37 -1 -55 2 -51 9 4 5 -3 2 -14 -8 -12 -11 -24 -14
-27 -9 -3 6 -15 8 -25 5 -39 -10 -129 18 -178 55 l-48 37 30 6 c27 6 25 7 -13
8 -30 1 -41 5 -36 13 5 7 3 8 -5 3 -7 -4 -22 2 -37 16 -28 26 -38 22 -25 -12
8 -20 10 -21 10 -5 1 19 2 19 21 1 16 -14 18 -21 8 -28 -9 -6 -8 -7 5 -3 28 9
114 -77 128 -128 6 -22 19 -65 29 -94 13 -38 15 -54 7 -57 -7 -2 -37 -9 -67
-15 -30 -6 -72 -15 -92 -21 l-38 -10 29 -50 c28 -50 28 -50 13 -110 -8 -33
-13 -62 -10 -64 2 -3 51 5 109 16 59 11 152 21 216 22 l113 2 0 31 c0 30 3 32
46 38 59 8 1101 8 1132 0 17 -5 22 -14 22 -38 l0 -31 108 -1 c91 -2 237 -20
319 -40 l21 -6 -15 66 c-15 66 -14 66 11 113 26 46 24 62 -9 63 -5 0 -26 5
-46 10 -34 9 -37 14 -43 55 -5 28 -14 49 -25 55 -10 5 -22 22 -26 37 -7 26 -8
26 -15 8 -5 -11 -9 -14 -9 -8 -1 7 -4 12 -8 11 -15 -5 -123 25 -123 34 0 4 39
8 88 8 83 1 86 1 67 18 -26 22 -21 60 8 67 12 3 44 8 71 12 27 5 51 14 54 21
3 9 -3 11 -21 7 -23 -6 -26 -3 -32 28 -4 19 -4 46 0 59 5 18 4 20 -4 7 -6 -9
-13 -27 -15 -40 -2 -13 -8 -23 -14 -22 -6 2 -9 -9 -6 -25 3 -22 2 -24 -6 -9
-12 19 -30 23 -30 6 0 -5 6 -7 13 -3 6 4 8 3 4 -1 -4 -5 -14 -10 -22 -11 -11
-2 -12 3 -2 24 6 15 14 31 19 37 17 19 7 27 -32 22 -22 -2 -37 0 -34 5 3 4 10
6 15 3 5 -4 9 -2 9 3 0 5 27 15 60 22 33 7 63 17 67 23 4 6 -4 8 -19 5 -22 -4
-24 -2 -20 20 3 17 1 23 -7 18 -6 -4 -9 -12 -6 -17 4 -5 1 -9 -5 -9 -6 0 -8
-4 -5 -10 4 -6 -1 -7 -11 -3 -12 5 -15 3 -9 -6 6 -10 3 -11 -14 -2 -17 10 -21
9 -21 -4 0 -8 -5 -15 -11 -15 -5 0 -7 5 -4 10 3 6 -1 10 -10 10 -12 0 -13 4
-6 18 7 14 6 19 -4 19 -8 0 -12 -4 -9 -9 7 -12 -36 -59 -47 -53 -4 3 -11 0
-15 -6 -4 -8 -3 -9 4 -5 7 4 12 2 12 -5 0 -6 10 1 21 15 17 21 24 24 30 15 10
-17 -17 -48 -39 -44 -9 1 -22 -2 -29 -7 -7 -6 -14 -5 -18 2 -5 8 -11 7 -23 -2
-14 -12 -14 -10 -3 12 l12 25 -20 -25 c-10 -13 -17 -29 -14 -34 3 -5 1 -6 -6
-2 -6 4 -8 12 -5 18 5 7 2 8 -7 2 -8 -5 -21 -9 -30 -9 -9 0 -24 -7 -34 -15
-17 -13 -18 -13 -10 0 6 11 4 11 -11 -2 -14 -12 -24 -14 -37 -6 -10 5 -21 7
-24 4 -4 -3 -1 -6 6 -6 7 0 9 -4 6 -10 -3 -5 -17 -10 -31 -10 -30 0 -44 31
-44 95 0 44 1 45 53 71 28 15 78 44 109 65 31 22 62 39 68 39 6 0 9 4 6 9 -7
11 -75 -21 -69 -33 3 -4 -5 -5 -18 -1 -17 4 -20 3 -10 -3 10 -7 -3 -19 -51
-46 -36 -20 -68 -36 -72 -36 -9 0 31 77 44 85 25 15 7 26 -35 22 -26 -3 -48
-1 -52 6 -4 6 -1 7 7 2 10 -6 11 -4 4 6 -5 8 -11 41 -14 73 -4 45 -9 60 -22
62 -11 1 -15 -3 -11 -13 4 -10 8 -11 13 -3 4 6 7 -3 7 -21 l0 -31 -19 23 c-14
18 -12 9 7 -31 24 -51 20 -51 -13 -3 -7 10 0 -7 14 -37 19 -38 22 -51 10 -41
-13 11 -16 11 -16 0 0 -8 -11 3 -24 24 -34 55 -41 58 -17 7 l22 -45 -26 30
-26 30 10 -27 c14 -38 7 -35 -18 8 -18 30 -19 37 -7 49 7 8 17 11 21 7 5 -4 5
-2 1 5 -3 6 -2 14 3 18 6 3 8 12 5 20 -6 15 -74 9 -85 -7 -9 -13 -19 16 -10
30 9 15 203 63 198 49 -3 -7 -9 -11 -15 -10 -6 2 -9 -4 -5 -13 4 -12 10 -10
24 13 26 39 24 48 -11 49 -17 1 -30 -4 -30 -9 0 -6 -6 -2 -14 8 -13 17 -14 17
-23 1 -8 -15 -11 -16 -16 -4 -3 8 -1 21 4 29 7 12 9 12 9 -1 0 -13 1 -13 10 0
9 13 10 13 10 0 0 -13 2 -13 11 0 9 12 10 11 4 -5 -4 -12 -3 -16 3 -10 5 6 7
31 4 58 -3 35 -8 47 -21 47 -9 0 -12 -3 -6 -8 13 -9 19 -46 6 -38 -5 4 -13 1
-17 -5 -4 -7 -3 -9 3 -6 6 4 13 1 16 -7 4 -10 -3 -13 -23 -11 -20 2 -27 -1
-23 -11 3 -9 -2 -12 -16 -9 -15 3 -18 0 -14 -12 4 -11 2 -14 -5 -9 -8 4 -10 2
-6 -8 4 -10 0 -14 -13 -12 -10 2 -22 -2 -26 -8 -6 -7 -7 -4 -3 7 3 10 2 16 -3
13 -5 -3 -14 1 -21 9 -9 11 -7 23 8 58 19 42 24 46 88 67 38 13 75 23 82 23 6
0 12 6 12 14 0 16 1 16 -49 -2 -54 -19 -56 -15 -48 131 4 63 5 114 4 114 -1
-1 -8 -7 -15 -15z m-61 -197 c48 -28 52 -63 7 -61 -46 2 -49 3 -44 11 3 5 -1
20 -9 35 -11 22 -11 37 2 37 2 0 22 -10 44 -22z m-7 -103 c-4 -8 -10 -12 -15
-9 -11 6 -2 24 11 24 5 0 7 -7 4 -15z m-239 -11 c8 3 15 2 15 -2 0 -5 -24 -14
-52 -22 -29 -7 -60 -15 -68 -18 -13 -5 -13 -4 0 10 8 8 21 13 29 10 8 -3 12
-1 8 5 -4 6 4 9 21 7 15 -2 21 -1 15 2 -7 3 -13 10 -13 16 0 6 6 6 15 -2 8 -7
22 -10 30 -6z m329 -80 c3 -8 2 -12 -4 -9 -6 3 -10 1 -10 -6 0 -7 -2 -10 -5
-7 -5 5 4 38 10 38 2 0 6 -7 9 -16z m-94 -25 c0 -6 -4 -7 -10 -4 -5 3 -10 11
-10 16 0 6 5 7 10 4 6 -3 10 -11 10 -16z m23 -26 c-7 -2 -19 -2 -25 0 -7 3 -2
5 12 5 14 0 19 -2 13 -5z m34 -95 c-2 -7 -12 -12 -20 -12 -13 1 -15 -4 -11
-22 4 -15 2 -24 -6 -24 -7 0 -10 -7 -6 -16 3 -9 2 -12 -5 -9 -5 4 -7 14 -5 23
3 10 1 24 -5 32 -8 12 -9 9 -4 -9 5 -16 4 -21 -4 -17 -15 10 -13 -4 4 -34 8
-14 14 -34 14 -45 1 -13 -10 -3 -29 30 -43 73 -37 50 19 -67 28 -56 48 -104
46 -106 -1 -2 -26 40 -55 92 -28 53 -53 96 -55 96 -2 0 14 -39 35 -86 22 -47
40 -89 40 -92 -1 -14 -33 35 -66 101 -19 37 -36 67 -39 67 -2 0 11 -34 30 -77
42 -92 39 -110 -4 -24 -34 67 -50 82 -25 24 29 -68 35 -86 30 -90 -2 -2 -19
23 -37 56 -18 33 -35 59 -36 57 -2 -2 8 -28 22 -59 33 -76 16 -73 -20 3 -34
72 -44 73 -15 1 23 -59 23 -61 12 -61 -5 0 -19 22 -32 50 -29 61 -35 60 -14
-4 9 -26 14 -49 11 -52 -2 -3 -19 19 -36 48 -34 58 -39 60 -16 5 24 -58 17
-66 -12 -15 -31 56 -40 57 -18 3 21 -50 11 -57 -16 -11 -22 38 -39 44 -19 6
21 -38 4 -44 -19 -7 -29 47 -34 47 -15 1 20 -47 12 -53 -15 -12 l-22 33 6 -30
6 -30 -26 30 -26 30 10 -28 c10 -25 9 -27 -8 -17 -11 5 -21 13 -23 17 -3 5 -3
2 -2 -4 4 -15 -12 -17 -21 -3 -3 5 -12 7 -19 4 -13 -5 -116 10 -158 22 -11 3
-18 15 -18 31 0 29 28 93 44 99 33 11 541 94 553 90 7 -3 13 0 13 6 0 6 3 9 6
6 3 -3 17 -2 32 2 40 12 54 11 49 -2z m-1010 -30 c31 -29 29 -38 -11 -38 -30
0 -34 3 -38 30 -6 37 15 40 49 8z m440 0 c-3 -8 -6 -5 -6 6 -1 11 2 17 5 13 3
-3 4 -12 1 -19z m582 -50 l11 -33 -20 24 c-11 13 -20 30 -20 38 0 23 17 6 29
-29z m-950 -12 c9 -11 7 -15 -7 -18 -12 -4 -18 1 -19 13 -2 22 10 25 26 5z
m89 -1 c2 -2 2 -11 0 -19 -2 -13 -9 -11 -33 10 l-30 27 30 -7 c16 -4 31 -9 33
-11z m836 0 c3 -8 1 -15 -4 -15 -6 0 -10 7 -10 15 0 8 2 15 4 15 2 0 6 -7 10
-15z m195 -36 c-9 -17 -13 -19 -19 -8 -11 16 -4 29 16 29 12 0 13 -4 3 -21z
m-29 -10 c6 -11 9 -25 7 -32 -2 -7 -11 2 -20 18 -21 39 -22 24 -1 -16 8 -17
13 -33 10 -36 -2 -3 -14 12 -25 34 -11 21 -20 34 -21 30 0 -4 9 -25 20 -47 11
-22 20 -47 20 -57 -1 -11 -8 -4 -21 20 -33 63 -30 41 7 -45 49 -114 51 -125 9
-44 -43 81 -56 83 -20 1 38 -86 22 -78 -24 11 -45 89 -54 93 -16 8 34 -76 24
-81 -14 -8 -37 72 -40 66 -6 -11 14 -32 24 -59 21 -62 -2 -2 -19 23 -37 56
-19 34 -37 61 -42 61 -10 0 -37 63 -37 89 0 19 13 24 110 37 25 3 47 8 49 10
10 9 21 3 31 -17z m-648 -160 c89 -16 198 -39 241 -50 86 -22 220 -69 214 -76
-3 -2 -22 3 -43 11 -77 31 -212 56 -354 68 -130 10 -150 14 -197 41 -85 47
-80 47 139 6z m408 9 c0 -10 3 -9 9 1 13 21 28 6 46 -49 13 -38 21 -50 37 -50
23 0 75 -41 100 -79 24 -35 24 -84 1 -79 -13 2 -20 16 -24 46 -5 42 -14 53
-76 93 -18 11 -42 38 -55 60 -24 44 -34 46 -18 4 18 -47 3 -40 -25 12 -25 47
-26 46 -10 -7 l8 -25 -23 20 c-13 11 -20 14 -16 8 8 -14 -6 -18 -18 -6 -3 4
-12 8 -19 10 -67 15 -81 20 -84 30 -5 13 27 19 110 22 40 1 57 -3 57 -11z m91
-43 c20 -56 7 -59 -21 -5 -23 45 -25 61 -7 55 7 -3 20 -26 28 -50z m33 -7 c8
-21 12 -38 7 -38 -6 0 -14 17 -40 85 -11 29 19 -15 33 -47z m517 11 c-11 -18
-17 -39 -14 -48 4 -13 2 -13 -10 2 -13 16 -15 16 -21 2 -3 -9 -2 -13 3 -10 10
6 25 -28 26 -61 0 -11 -5 -21 -11 -21 -7 0 -10 6 -8 12 3 6 -2 12 -11 12 -10
0 -14 -6 -10 -16 3 -11 0 -10 -10 3 -11 14 -15 16 -15 5 0 -12 -2 -12 -10 1
-5 8 -10 20 -10 25 0 6 5 3 10 -5 9 -13 10 -13 10 0 0 13 1 13 10 0 9 -13 10
-13 10 0 0 13 1 13 10 0 5 -8 10 -10 10 -4 0 5 -6 19 -14 30 -13 17 -15 17
-21 2 -4 -9 -15 -15 -25 -13 -16 3 -18 0 -9 -21 15 -40 10 -42 -11 -4 -21 39
-26 36 -10 -6 9 -24 9 -25 -5 -14 -12 10 -15 10 -15 -1 -1 -8 -7 -3 -15 11 -8
14 -14 19 -15 12 0 -7 -4 -10 -10 -7 -6 4 -7 -1 -3 -11 4 -11 3 -15 -4 -11 -6
4 -14 1 -17 -5 -3 -7 -4 -2 -1 12 3 14 2 19 -1 12 -3 -6 -10 -10 -15 -7 -5 4
-6 -2 -2 -11 4 -12 3 -15 -5 -10 -6 4 -33 9 -59 11 -80 8 -136 25 -168 51
l-30 24 43 0 c23 0 42 -5 42 -11 0 -6 7 -3 16 5 8 9 20 14 25 10 5 -3 8 0 7 7
-3 14 299 72 340 65 12 -2 22 1 22 5 0 5 4 9 10 9 5 0 1 -14 -9 -31z m86 -21
c2 -17 0 -19 -7 -8 -5 8 -6 18 -4 22 8 12 10 10 11 -14z m-1457 -28 c0 -5 -5
-10 -11 -10 -5 0 -7 5 -4 10 3 6 8 10 11 10 2 0 4 -4 4 -10z m-261 -115 c47
-8 87 -18 90 -21 3 -2 -33 -2 -79 2 -57 4 -95 13 -115 25 -28 18 -29 19 -5 15
14 -3 63 -12 109 -21z m1351 5 c101 -19 242 -59 160 -44 -19 3 -76 9 -126 13
-67 6 -100 13 -125 29 -42 27 -39 27 91 2z m-1131 -7 c-21 -29 -23 -29 -16 -8
7 19 6 19 -7 3 -13 -17 -32 -26 -23 -10 3 4 -10 7 -29 8 -19 0 -40 6 -46 12
-9 9 5 12 61 12 68 0 73 -1 60 -17z m-92 -29 c-3 -3 -12 -4 -19 -1 -8 3 -5 6
6 6 11 1 17 -2 13 -5z m1463 -24 c18 -12 2 -12 -25 0 -13 6 -15 9 -5 9 8 0 22
-4 30 -9z m-265 -21 c28 -5 68 -12 90 -14 22 -3 67 -9 100 -14 l60 -9 -95 -2
c-83 -2 -89 -4 -50 -11 25 -4 71 -8 103 -8 51 -1 57 -3 57 -22 0 -21 -3 -22
-107 -16 l-108 5 90 -13 c50 -7 98 -14 108 -14 9 -1 17 -5 17 -11 0 -6 -44
-11 -107 -12 l-108 -1 108 -10 c59 -6 107 -14 107 -18 0 -5 -48 -10 -107 -10
l-108 -2 75 -9 c41 -5 91 -12 110 -15 83 -15 -117 -20 -811 -18 -816 2 -843 3
-814 15 11 5 43 9 70 10 28 1 68 5 90 9 31 7 16 9 -69 10 -60 0 -106 4 -102 9
4 4 53 12 109 18 l102 11 -107 2 c-60 0 -108 5 -108 10 0 5 48 15 108 24 l107
15 -109 -6 c-102 -5 -108 -4 -104 14 3 16 17 20 108 29 l105 10 -100 6 c-55 3
-86 6 -70 8 17 1 66 7 110 12 44 6 107 14 140 18 88 12 1051 12 1110 0z
m-1510 -129 c-15 -6 -7 -10 34 -15 l55 -8 -54 -14 c-70 -18 -75 -24 -14 -18
l49 5 -40 -14 -40 -15 50 4 50 5 -45 -13 c-68 -20 -79 -28 -35 -22 l40 4 -35
-13 c-34 -14 -34 -14 25 -9 71 7 68 -3 -7 -23 -37 -9 -42 -12 -15 -8 49 7 106
-4 86 -17 -19 -12 -32 -11 -24 1 4 6 -6 10 -22 10 -21 0 -24 -3 -13 -10 12 -8
12 -10 -3 -16 -9 -3 -23 -4 -31 -1 -8 3 -16 2 -18 -2 -2 -5 -20 -11 -40 -15
-43 -8 -43 -6 -27 60 11 41 9 50 -11 86 -29 51 -15 64 70 65 27 0 30 -1 15 -7z
m1966 -5 c20 -7 20 -7 -5 -49 -23 -40 -24 -44 -11 -99 l13 -58 -36 7 c-20 4
-41 9 -47 13 -5 3 -21 4 -34 2 -18 -2 -22 1 -18 12 4 10 -1 17 -11 20 -9 2 6
3 33 1 l50 -3 -50 13 c-81 21 -85 26 -15 22 l65 -4 -40 14 -40 14 40 -4 c38
-5 38 -4 -15 14 l-55 20 50 -5 50 -5 -45 14 -45 14 35 2 35 2 -40 14 -40 14
50 -5 c35 -3 44 -2 30 4 l-20 10 20 1 20 1 -20 9 c-23 10 62 5 96 -5z m-177
-164 c4 -5 -3 -7 -14 -4 -23 6 -26 13 -6 13 8 0 17 -4 20 -9z"/>
<path d="M2470 1005 c0 -5 5 -17 10 -25 5 -8 10 -10 10 -5 0 6 -5 17 -10 25
-5 8 -10 11 -10 5z"/>
<path d="M1308 833 c7 -3 16 -2 19 1 4 3 -2 6 -13 5 -11 0 -14 -3 -6 -6z"/>
<path d="M1058 823 c7 -3 16 -2 19 1 4 3 -2 6 -13 5 -11 0 -14 -3 -6 -6z"/>
<path d="M1157 813 c-3 -5 -16 -36 -28 -69 -12 -32 -26 -65 -32 -71 -7 -10 -4
-13 11 -13 15 0 19 5 15 20 -5 17 0 20 32 20 32 0 37 -3 32 -20 -5 -19 0 -20
81 -19 48 0 81 3 75 6 -7 2 -13 17 -13 31 l1 27 28 -32 c26 -31 71 -45 71 -23
0 6 -3 10 -8 10 -4 0 -13 9 -20 20 -10 17 -10 23 2 36 32 31 -7 54 -93 54
l-37 0 4 -61 c4 -55 3 -61 -14 -57 -12 2 -33 30 -54 70 -40 75 -46 83 -53 71z
m211 -62 c-2 -9 -11 -17 -21 -19 -12 -3 -17 3 -17 21 0 20 4 24 20 20 12 -3
20 -12 18 -22z m-201 -37 c-3 -3 -12 -4 -20 -2 -11 2 -12 9 -5 28 l10 25 11
-23 c5 -12 8 -25 4 -28z"/>
<path d="M1458 731 c3 -38 1 -56 -9 -62 -10 -6 -4 -9 18 -9 21 0 31 4 29 13
-10 31 -15 77 -8 77 4 0 17 -16 30 -35 12 -19 27 -35 32 -35 5 0 20 16 32 35
13 19 26 35 29 35 11 0 8 -64 -3 -77 -8 -10 -1 -13 33 -13 29 0 39 3 30 9 -10
6 -12 24 -9 64 4 54 4 55 -21 52 -13 -1 -37 -17 -52 -36 l-26 -33 -24 37 c-20
30 -29 36 -55 34 l-30 -2 4 -54z"/>
<path d="M1760 782 c0 -5 -15 -34 -34 -65 -32 -52 -33 -57 -15 -57 11 0 18 4
14 9 -7 12 29 73 38 64 12 -11 8 -35 -5 -27 -7 4 -8 3 -4 -4 4 -7 14 -12 23
-12 9 0 13 -6 9 -15 -4 -12 3 -15 35 -15 37 0 39 1 24 16 -9 9 -27 38 -41 65
-21 43 -44 64 -44 41z"/>
<path d="M1870 781 c0 -6 5 -11 10 -11 14 0 12 -84 -2 -98 -9 -9 2 -12 49 -12
64 0 86 11 98 51 4 12 0 30 -9 44 -14 21 -24 25 -65 25 -27 0 -56 3 -65 6 -9
3 -16 1 -16 -5z m104 -27 c16 -40 0 -84 -31 -84 -9 0 -13 16 -13 50 0 42 3 50
19 50 10 0 22 -7 25 -16z"/>
<path d="M2113 768 c-6 -7 -20 -32 -33 -55 -13 -24 -28 -43 -32 -43 -5 0 -6
-4 -3 -10 11 -17 36 -11 33 8 -2 13 5 18 31 20 30 3 33 1 28 -17 -5 -19 -1
-21 34 -21 l38 0 -23 34 c-12 19 -29 48 -36 65 -14 34 -22 38 -37 19z m11 -53
c4 -10 -1 -15 -14 -15 -13 0 -18 5 -14 15 4 8 10 15 14 15 4 0 10 -7 14 -15z"/>
<path d="M2128 623 c7 -3 16 -2 19 1 4 3 -2 6 -13 5 -11 0 -14 -3 -6 -6z"/>
<path d="M648 693 c7 -3 16 -2 19 1 4 3 -2 6 -13 5 -11 0 -14 -3 -6 -6z"/>
<path d="M688 683 c6 -2 18 -2 25 0 6 3 1 5 -13 5 -14 0 -19 -2 -12 -5z"/>
<path d="M1649 1813 c-13 -16 -12 -17 4 -4 9 7 17 15 17 17 0 8 -8 3 -21 -13z"/>
<path d="M1786 1739 c3 -5 10 -6 16 -3 7 5 9 2 5 -8 -7 -20 17 -56 27 -40 9
15 -18 55 -39 58 -8 1 -13 -2 -9 -7z"/>
<path d="M1500 1709 c-56 -38 -248 -133 -321 -158 -29 -11 -49 -20 -42 -20 19
-1 152 49 242 92 75 35 181 102 181 113 0 9 -17 1 -60 -27z"/>
<path d="M1777 1713 c4 -11 3 -14 -5 -9 -8 5 -10 1 -5 -10 4 -11 8 -13 11 -6
2 7 8 9 14 6 6 -4 5 2 -1 15 -14 25 -23 28 -14 4z"/>
<path d="M1846 1622 c-3 -5 1 -9 9 -9 8 0 12 4 9 9 -3 4 -7 8 -9 8 -2 0 -6 -4
-9 -8z"/>
<path d="M1829 1585 c17 -33 31 -51 31 -40 0 6 -10 21 -21 35 -13 17 -17 18
-10 5z"/>
<path d="M1926 1557 c3 -10 9 -15 12 -12 3 3 0 11 -7 18 -10 9 -11 8 -5 -6z"/>
<path d="M2298 1516 c-32 -7 -61 -15 -64 -19 -6 -6 43 -10 124 -11 19 0 22 -6
22 -36 0 -19 -4 -52 -9 -73 l-9 -38 31 7 c45 10 105 33 87 33 -8 0 -32 -3 -52
-8 l-37 -9 2 84 c2 96 7 92 -95 70z"/>
<path d="M2475 1421 l-70 -3 65 -14 c38 -8 68 -10 73 -5 19 19 -1 26 -68 22z"/>
<path d="M2027 1365 c9 -19 18 -33 21 -31 4 5 -26 66 -33 66 -3 0 3 -16 12
-35z"/>
<path d="M2532 1348 c-2 -42 -11 -46 -47 -22 -26 17 -28 15 -28 -28 0 -10 -4
-18 -9 -18 -5 0 -6 -5 -2 -11 5 -8 1 -8 -14 0 -15 8 -23 8 -28 -1 -5 -7 -3 -8
6 -3 8 5 11 4 7 -2 -4 -6 -18 -9 -33 -7 -31 3 -76 -15 -68 -27 3 -5 -2 -9 -11
-9 -9 0 -13 5 -9 11 4 8 0 8 -15 0 -12 -7 -27 -9 -33 -5 -7 4 -8 3 -4 -5 4 -7
-2 -15 -16 -20 -44 -18 1 -11 124 19 139 34 142 34 132 18 -5 -7 4 -3 19 9 15
11 42 24 62 27 19 4 37 12 41 17 6 10 -11 8 -53 -8 -8 -3 -13 13 -16 49 -2 39
-4 43 -5 16z m-29 -42 c26 -20 21 -37 -11 -34 -22 1 -28 7 -28 25 0 26 13 29
39 9z"/>
<path d="M915 1270 c-16 -9 -31 -21 -32 -28 -2 -8 43 12 75 34 2 1 0 4 -5 6
-4 2 -21 -3 -38 -12z"/>
<path d="M828 1209 c-21 -11 -38 -22 -38 -24 0 -3 18 4 40 15 22 11 40 23 40
25 0 7 0 7 -42 -16z"/>
<path d="M2449 1143 c-13 -16 -12 -17 4 -4 9 7 17 15 17 17 0 8 -8 3 -21 -13z"/>
<path d="M2607 994 c-3 -3 -3 -13 0 -22 5 -11 3 -13 -7 -7 -8 5 -11 4 -7 -3 4
-5 4 -18 1 -27 -5 -12 -9 -13 -14 -5 -5 8 -9 7 -13 -5 -4 -9 -3 -13 3 -10 13
8 13 -5 0 -25 -7 -11 -10 -11 -10 -2 0 8 -5 10 -12 6 -7 -5 -9 -2 -6 8 4 8 1
15 -7 15 -10 0 -10 -7 -3 -30 7 -18 13 -25 18 -17 4 6 11 10 15 8 4 -1 16 13
26 32 13 23 17 27 13 11 -3 -13 -2 -21 3 -18 5 3 9 -3 9 -14 0 -18 -2 -19 -12
-4 -11 14 -12 14 -18 -1 -9 -23 -8 -24 18 -24 23 0 24 2 22 70 -1 66 -5 78
-19 64z"/>
<path d="M1036 983 c-4 -5 -13 -8 -18 -8 -6 0 -13 -7 -15 -15 -4 -12 -3 -12 5
-1 6 9 11 10 13 2 2 -6 10 -2 17 9 12 20 12 26 -2 13z"/>
<path d="M945 969 c-4 -5 -4 -13 -1 -16 3 -4 6 0 6 8 0 11 2 11 10 -1 6 -9 10
-10 10 -3 0 17 -17 25 -25 12z"/>
<path d="M1175 970 c3 -5 8 -10 11 -10 2 0 4 5 4 10 0 6 -5 10 -11 10 -5 0 -7
-4 -4 -10z"/>
</g>
</svg>
