<?xml version="1.0" encoding="UTF-8"?>
<svg version="1.1" xmlns="http://www.w3.org/2000/svg" width="869" height="186">
<path d="M0 0 C286.77 0 573.54 0 869 0 C869 61.38 869 122.76 869 186 C582.23 186 295.46 186 0 186 C0 124.62 0 63.24 0 0 Z " fill="#170827" transform="translate(0,0)"/>
<path d="M0 0 C20.13270239 6.81119959 36.63437101 19.0309917 46.875 37.97265625 C55.90087436 56.69670467 58.69468464 79.43698828 52.26953125 99.484375 C48.1324047 109.83298567 43.4090919 119.64185579 35.875 127.97265625 C35.34519531 128.58238281 34.81539062 129.19210938 34.26953125 129.8203125 C29.51696112 134.95670064 23.92292666 138.5178817 17.875 141.97265625 C17.07835937 142.43800781 16.28171875 142.90335938 15.4609375 143.3828125 C-2.12818441 152.51240435 -23.23579642 151.4944208 -42.4375 151.22265625 C-44.94334488 151.20253289 -47.44920561 151.18429259 -49.95507812 151.16796875 C-56.01207278 151.12450049 -62.06845882 151.05806398 -68.125 150.97265625 C-67.63822375 150.27359319 -67.15144751 149.57453012 -66.64992046 148.85428333 C-64.90545801 145.55778993 -64.74232185 143.57400292 -64.72627258 139.86662292 C-64.71373444 138.63969727 -64.70119629 137.41277161 -64.6882782 136.14866638 C-64.68945214 134.79727146 -64.69091124 133.44587676 -64.69262695 132.09448242 C-64.68360661 130.66518304 -64.67327871 129.2358914 -64.66174316 127.80661011 C-64.63417878 123.93304231 -64.62488945 120.05962132 -64.61888909 116.18596816 C-64.60950394 112.13533832 -64.58330044 108.08481808 -64.55888367 104.03425598 C-64.51521885 96.36688732 -64.4866718 88.69953992 -64.46356028 81.03208476 C-64.43650851 72.30172121 -64.39259699 63.5714679 -64.34727156 54.84118307 C-64.25442555 36.88506567 -64.18274462 18.92891911 -64.125 0.97265625 C-63.00544922 1.21242188 -63.00544922 1.21242188 -61.86328125 1.45703125 C-40.95568395 5.39398252 -21.70443892 -6.07611246 0 0 Z " fill="#FCFCFC" transform="translate(637.125,21.02734375)"/>
<path d="M0 0 C8.66854194 6.85691408 14.88664403 17.74432109 16.80078125 28.5625 C18.08211469 43.44844741 17.44403926 57.4576774 9.0390625 70.2421875 C7.58849301 72.41254357 7.58849301 72.41254357 8.06811523 74.4765625 C8.86598833 76.74814789 9.85669051 78.32278075 11.28515625 80.2578125 C11.80134521 80.96413818 12.31753418 81.67046387 12.84936523 82.39819336 C13.41083252 83.15366455 13.9722998 83.90913574 14.55078125 84.6875 C15.74498723 86.31626288 16.93899218 87.94517317 18.1328125 89.57421875 C18.74463379 90.4048584 19.35645508 91.23549805 19.98681641 92.09130859 C22.22836595 95.14500502 24.44179129 98.21826247 26.65234375 101.29443359 C28.79788613 104.27824361 30.9537837 107.25448732 33.11083984 110.22998047 C34.27156301 111.83205344 35.43065559 113.43530866 36.58837891 115.03955078 C45.89796559 127.94501877 45.89796559 127.94501877 56.32421875 139.9453125 C57.80078125 141.5625 57.80078125 141.5625 57.80078125 142.5625 C37.67078125 142.5625 17.54078125 142.5625 -3.19921875 142.5625 C-3.69421875 138.1075 -3.69421875 138.1075 -4.19921875 133.5625 C-5.18492764 131.26679224 -5.18492764 131.26679224 -6.68359375 129.59765625 C-7.20074951 128.95151367 -7.71790527 128.30537109 -8.25073242 127.63964844 C-8.81123291 126.97481445 -9.3717334 126.30998047 -9.94921875 125.625 C-11.12988896 124.1541749 -12.3081972 122.68145128 -13.484375 121.20703125 C-14.0942627 120.45115723 -14.70415039 119.6952832 -15.33251953 118.91650391 C-18.46560287 114.96552437 -21.42998531 110.89622631 -24.38671875 106.8125 C-24.93875977 106.06234619 -25.49080078 105.31219238 -26.05957031 104.53930664 C-28.6268388 100.99784427 -30.8474616 97.77533824 -32.19921875 93.5625 C-35.49921875 93.5625 -38.79921875 93.5625 -42.19921875 93.5625 C-42.19921875 109.7325 -42.19921875 125.9025 -42.19921875 142.5625 C-58.36921875 142.5625 -74.53921875 142.5625 -91.19921875 142.5625 C-90.20921875 140.9125 -89.21921875 139.2625 -88.19921875 137.5625 C-87.74499735 134.58364345 -87.74499735 134.58364345 -87.80049133 131.34257507 C-87.78795319 130.09040695 -87.77541504 128.83823883 -87.76249695 127.54812622 C-87.7636709 126.16839573 -87.76513 124.78866547 -87.7668457 123.40893555 C-87.75782564 121.95008006 -87.74749781 120.49123217 -87.73596191 119.03239441 C-87.70839431 115.07825109 -87.69910776 111.1242516 -87.69310784 107.17002463 C-87.68372353 103.03531433 -87.6575201 98.90071143 -87.63310242 94.7660675 C-87.58943528 86.93932655 -87.56088965 79.11260643 -87.53777903 71.28578073 C-87.51072851 62.37404342 -87.46681691 53.46241413 -87.42149031 44.55075395 C-87.32864097 26.221393 -87.25696156 7.89200348 -87.19921875 -10.4375 C-82.44921875 -8.5625 -82.44921875 -8.5625 -80.19921875 -7.4375 C-73.17804271 -6.55624128 -66.68907775 -7.90214639 -59.88671875 -9.4375 C-38.34127658 -14.15293601 -18.64234656 -12.18540592 0 0 Z " fill="#FCFCFC" transform="translate(287.19921875,29.4375)"/>
<path d="M0 0 C27.72 0 55.44 0 84 0 C84.06058594 10.24160156 84.12117187 20.48320313 84.18359375 31.03515625 C84.22408468 37.52018619 84.26481688 44.00521312 84.30664062 50.49023438 C84.37299203 60.78538544 84.43835337 71.08053602 84.49731445 81.37573242 C84.54026041 88.87373599 84.58656433 96.37171007 84.63687855 103.86966795 C84.66339579 107.8387266 84.6882464 111.80777971 84.70907402 115.77687263 C84.72874572 119.51556365 84.75292002 123.25419897 84.78049088 126.99283981 C84.79423468 129.0132381 84.80325528 131.03366681 84.81211853 133.05409241 C84.82680176 134.87336243 84.82680176 134.87336243 84.84178162 136.72938538 C84.84823417 137.777464 84.85468672 138.82554262 84.8613348 139.9053812 C85.01291376 143.28819892 85.5211173 146.64782112 86 150 C66.86 150 47.72 150 28 150 C28 149.34 28 148.68 28 148 C28.66 148 29.32 148 30 148 C30.4640625 146.7934375 30.4640625 146.7934375 30.9375 145.5625 C32 143 32 143 33 142 C33.99 135.565 33.99 135.565 35 129 C21.47 129 7.94 129 -6 129 C-6.66 130.65 -7.32 132.3 -8 134 C-8.515625 134.886875 -9.03125 135.77375 -9.5625 136.6875 C-11.60691366 140.93769326 -11.60691366 140.93769326 -12 150 C-31.8 150 -51.6 150 -72 150 C-70.02 147.69 -68.04 145.38 -66 143 C-60.09720525 135.92361811 -54.7275896 128.50416041 -49.41113281 120.98632812 C-46.85782211 117.39225618 -44.27141583 113.82209894 -41.6875 110.25 C-41.14005127 109.49267578 -40.59260254 108.73535156 -40.02856445 107.95507812 C-38.91027925 106.4081142 -37.7918704 104.86123965 -36.67333984 103.31445312 C-34.48733752 100.29091913 -32.30288938 97.26626449 -30.11865234 94.24145508 C-29.03711318 92.74377619 -27.95540669 91.24621811 -26.87353516 89.7487793 C-24.17458827 86.01292827 -21.47772458 82.27560767 -18.78515625 78.53515625 C-13.71166441 71.49163014 -8.61918065 64.46419568 -3.45922852 57.48364258 C-1.6756635 55.06860106 0.09984079 52.64778563 1.875 50.2265625 C3.69422811 47.74966379 5.53785441 45.31561475 7.4375 42.8984375 C10.81153303 38.50403158 13.05517511 35.14818573 12.5546875 29.47265625 C10.60609241 20.78631334 6.64929451 12.91140335 2.234375 5.2421875 C1 3 1 3 0 0 Z " fill="#FCFCFC" transform="translate(107,22)"/>
<path d="M0 0 C16.5 0 33 0 50 0 C50.02505615 4.29523682 50.0501123 8.59047363 50.07592773 13.01586914 C50.15937343 27.20126398 50.24801463 41.38662283 50.33933926 55.57196903 C50.39458664 64.17320993 50.44805453 72.77445498 50.49731445 81.37573242 C50.54026041 88.87373599 50.58656433 96.37171007 50.63687855 103.86966795 C50.66339579 107.8387266 50.6882464 111.80777971 50.70907402 115.77687263 C50.72874572 119.51556365 50.75292002 123.25419897 50.78049088 126.99283981 C50.79423468 129.0132381 50.80325528 131.03366681 50.81211853 133.05409241 C50.82680176 134.87336243 50.82680176 134.87336243 50.84178162 136.72938538 C50.84823417 137.777464 50.85468672 138.82554262 50.8613348 139.9053812 C51.01291376 143.28819892 51.5211173 146.64782112 52 150 C32.86 150 13.72 150 -6 150 C-6 149.34 -6 148.68 -6 148 C-5.34 148 -4.68 148 -4 148 C-1.3108966 141.46932032 0.10655341 136.14757272 1 129 C-12.53 129 -26.06 129 -40 129 C-40.66 130.65 -41.32 132.3 -42 134 C-42.69543404 135.34010648 -43.40315038 136.67393552 -44.125 138 C-45.72692637 141.16216693 -46.51438271 143.39932102 -46 147 C-45.67 147.99 -45.34 148.98 -45 150 C-65.13 150 -85.26 150 -106 150 C-104.02 147.69 -102.04 145.38 -100 143 C-98.96030367 141.70748053 -97.93106892 140.40631733 -96.921875 139.08984375 C-96.40625 138.41767822 -95.890625 137.7455127 -95.359375 137.05297852 C-94.82828125 136.35487061 -94.2971875 135.6567627 -93.75 134.9375 C-93.1828125 134.19363037 -92.615625 133.44976074 -92.03125 132.68334961 C-87.33788782 126.50018848 -82.80990082 120.21241379 -78.33056641 113.87353516 C-75.804574 110.31675246 -73.24418328 106.78475095 -70.6875 103.25 C-69.86572266 102.11316772 -69.86572266 102.11316772 -69.02734375 100.95336914 C-67.90946221 99.40697722 -66.79146019 97.86067238 -65.67333984 96.31445312 C-63.48733752 93.29091913 -61.30288938 90.26626449 -59.11865234 87.24145508 C-58.03711318 85.74377619 -56.95540669 84.24621811 -55.87353516 82.7487793 C-53.17458827 79.01292827 -50.47772458 75.27560767 -47.78515625 71.53515625 C-42.23195352 63.82536994 -36.64560532 56.1424407 -31 48.5 C-25.30117504 40.78512977 -19.65092731 33.03743804 -14.0625 25.2421875 C-12.0738125 22.47187029 -10.05411949 19.72992731 -8 17.0078125 C-7.53432617 16.38173096 -7.06865234 15.75564941 -6.58886719 15.1105957 C-5.73049548 13.95780438 -4.86216148 12.81232565 -3.98144531 11.67651367 C-0.85813184 7.44311482 -0.81996693 5.73976851 0 0 Z " fill="#FCFCFC" transform="translate(514,22)"/>
<path d="M0 0 C16.5 0 33 0 50 0 C53.302267 8.80604534 53.302267 8.80604534 54.25 13.125 C55.93042053 20.14164956 58.16265981 26.96408231 60.39941406 33.81884766 C66 51.07026492 66 51.07026492 66 57 C66.66 57 67.32 57 68 57 C68.12955078 56.08734375 68.12955078 56.08734375 68.26171875 55.15625 C69.65017054 46.49434892 72.25147279 38.30388864 75 30 C75.48557373 28.53071045 75.48557373 28.53071045 75.98095703 27.03173828 C78.01324663 20.89345183 80.05978757 14.76003844 82.11791992 8.63037109 C83.08222949 5.75479088 84.04089341 2.87731977 85 0 C101.5 0 118 0 135 0 C134.01 1.98 133.02 3.96 132 6 C130.34569383 15.72084244 133.30571728 26.63609761 134.875 36.25 C139.01764048 62.07623549 139.01764048 62.07623549 140 71 C140.11375977 71.93070312 140.22751953 72.86140625 140.34472656 73.8203125 C140.84902639 80.98522815 138.05638441 84.83821579 133.625 90.25 C132.32718785 91.91723968 131.03031802 93.58521328 129.734375 95.25390625 C129.09435547 96.06230957 128.45433594 96.87071289 127.79492188 97.70361328 C125.38061921 100.79242324 123.12060454 103.9752135 120.875 107.1875 C117.13190542 112.46845515 113.3057254 117.68506402 109.4375 122.875 C108.64931885 123.93883911 108.64931885 123.93883911 107.84521484 125.02416992 C106.58855804 126.70186295 105.29768798 128.35383897 104 130 C103.67 130 103.34 130 103 130 C102.88406494 128.90010742 102.76812988 127.80021484 102.64868164 126.66699219 C102.21729608 122.58156203 101.78218192 118.49653608 101.34594727 114.41162109 C101.15775657 112.64447642 100.97057363 110.87722411 100.78442383 109.10986328 C100.51649379 106.56774306 100.24492748 104.02603347 99.97265625 101.484375 C99.89032242 100.69569031 99.80798859 99.90700562 99.72315979 99.09442139 C99.35054218 95.64586168 98.85651557 92.35564907 98 89 C97.792072 87.26891827 97.61632038 85.53380702 97.46484375 83.796875 C97.37783203 82.8171875 97.29082031 81.8375 97.20117188 80.828125 C97.11416016 79.81234375 97.02714844 78.7965625 96.9375 77.75 C96.80118164 76.203125 96.80118164 76.203125 96.66210938 74.625 C96.43855754 72.08356856 96.2179601 69.54191609 96 67 C94.42787348 71.70347566 92.86370736 76.40938736 91.31640625 81.12109375 C90.7317951 82.89323717 90.14715947 84.66537252 89.5625 86.4375 C89.13227539 87.75331055 89.13227539 87.75331055 88.69335938 89.09570312 C86.95754952 94.34179215 85.03695688 99.46535339 82.95288086 104.58227539 C81.4733088 108.33636254 80.23719562 112.16065923 79 116 C77.20205491 121.49272226 75.30307921 126.87481851 73.078125 132.2109375 C70.43973998 139.03632484 68.2725239 146.04607686 66 153 C65.01 152.67 64.02 152.34 63 152 C62.04516602 149.75292969 62.04516602 149.75292969 61.19140625 146.671875 C60.85254395 145.49173828 60.51368164 144.31160156 60.16455078 143.09570312 C59.97999329 142.44061768 59.79543579 141.78553223 59.60528564 141.1105957 C58.49180772 137.22796317 57.28297933 133.37436097 56.08984375 129.515625 C55.56931245 127.82172179 55.04913485 126.12770986 54.52929688 124.43359375 C54.26753662 123.5813623 54.00577637 122.72913086 53.73608398 121.85107422 C53.20153111 120.10997781 52.66735441 118.36876587 52.13354492 116.62744141 C51.34915824 114.06902353 50.56337767 111.5110372 49.77734375 108.953125 C49.54289047 108.18728088 49.30843719 107.42143677 49.06687927 106.63238525 C46.31283549 97.68105601 43.26817575 88.84582585 40.07421875 80.04296875 C38.76480906 76.38060967 37.62238478 72.8557496 37 69 C34.96885967 71.03114033 35.53338812 75.09946954 35.3515625 77.8984375 C35.23360033 79.58073762 35.11551246 81.26302893 34.99731445 82.9453125 C34.93661774 83.83250977 34.87592102 84.71970703 34.81338501 85.63378906 C33.6325748 102.81588796 32.11199831 119.90481114 30 137 C25.88504598 133.14548611 22.74232335 129.0176713 19.5625 124.375 C15.00953227 117.82497761 10.36633688 111.35258517 5.625 104.9375 C4.76950562 103.77903564 4.76950562 103.77903564 3.89672852 102.59716797 C3.34557373 101.85225098 2.79441895 101.10733398 2.2265625 100.33984375 C1.69385742 99.61837158 1.16115234 98.89689941 0.61230469 98.15356445 C-0.48571873 96.68692839 -1.60043384 95.23267538 -2.72949219 93.78979492 C-3.27508789 93.08830322 -3.82068359 92.38681152 -4.3828125 91.6640625 C-4.87410645 91.04354004 -5.36540039 90.42301758 -5.87158203 89.78369141 C-7.89374781 86.58725195 -7.48745537 83.56702634 -7 80 C-6.88011719 78.93007812 -6.76023437 77.86015625 -6.63671875 76.7578125 C-5.74870565 69.45293948 -4.51913587 62.23433181 -3.1809082 54.99951172 C-1.8147981 47.38058929 -0.90722062 39.7070185 -0.00219727 32.02172852 C0.11454346 31.03873779 0.23128418 30.05574707 0.3515625 29.04296875 C0.45291504 28.16664795 0.55426758 27.29032715 0.65869141 26.38745117 C1 24 1 24 1.5300293 21.88745117 C2.2560436 18.97170229 2.17138668 16.12207814 2.1875 13.125 C2.20167969 11.93132813 2.21585937 10.73765625 2.23046875 9.5078125 C2.11617002 5.50400486 2.11617002 5.50400486 0 0 Z " fill="#FDFCFD" transform="translate(313,22)"/>
<path d="M0 0 C27.39 0 54.78 0 83 0 C81.39138487 4.02153784 79.67093159 7.49563149 77.5625 11.25 C74.77856086 16.40028741 72.26279531 21.26391282 71 27 C70.82726562 27.6909375 70.65453125 28.381875 70.4765625 29.09375 C69.83254529 33.89777024 71.18811839 36.69759975 74.07470703 40.55053711 C75.88174788 42.82545429 77.73736483 45.0573838 79.60205078 47.28515625 C81.80784532 49.99097198 83.80804142 52.83107477 85.8125 55.6875 C86.64532944 56.86363822 87.47867765 58.03940924 88.3125 59.21484375 C88.96025391 60.12919189 88.96025391 60.12919189 89.62109375 61.06201172 C92.16577612 64.63844385 94.74032199 68.19331847 97.3125 71.75 C97.86010986 72.50756592 98.40771973 73.26513184 98.97192383 74.0456543 C100.09005534 75.59236753 101.20830141 77.13899794 102.32666016 78.68554688 C104.51266248 81.70908087 106.69711062 84.73373551 108.88134766 87.75854492 C109.96288682 89.25622381 111.04459331 90.75378189 112.12646484 92.2512207 C114.82541173 95.98707173 117.52227542 99.72439233 120.21484375 103.46484375 C135.4404545 127.8791193 135.4404545 127.8791193 155 148 C155 148.66 155 149.32 155 150 C135.53 150 116.06 150 96 150 C95.505 145.545 95.505 145.545 95 141 C93.99254723 136.29063687 92.69910461 133.17556707 89 130 C82.49108197 128.00742039 75.34593018 128.64740216 68.625 128.8125 C66.72527217 128.81946168 64.82551929 128.82146833 62.92578125 128.81835938 C58.28160437 128.8215412 53.64288777 128.89256389 49 129 C49.28120787 131.09109556 49.57375039 133.18066902 49.87109375 135.26953125 C50.03279053 136.43331299 50.1944873 137.59709473 50.36108398 138.79614258 C51.16602835 142.83255257 52.39035642 144.88526411 55 148 C55.33 148.66 55.66 149.32 56 150 C36.53 150 17.06 150 -3 150 C-2.34 147.03 -1.68 144.06 -1 141 C-0.89470249 139.00179614 -0.82639533 137.00092808 -0.8125 135 C-0.39784193 129.30202622 1.29121242 126.84620055 4.9609375 122.6328125 C17.90529054 105.91922256 20.87964551 82.47456312 19 62 C17.27018111 48.99653387 12.2501762 35.68416039 3.5625 25.8125 C0 20 0 20 0 0 Z " fill="#FCFCFC" transform="translate(679,22)"/>
<path d="M0 0 C8.08248668 0 14.11999639 1.52340195 20.9375 5.875 C27.16904381 12.29537847 29.39612503 18.92185084 29.375 27.75 C29.37338867 28.45302246 29.37177734 29.15604492 29.37011719 29.88037109 C29.22908832 35.90451608 27.89119276 40.68590627 25 46 C24.505 47.0725 24.01 48.145 23.5 49.25 C19.53689846 53.6094117 14.57507139 56.17401843 9 58 C6.03 58 3.06 58 0 58 C0 38.86 0 19.72 0 0 Z " fill="#18092A" transform="translate(617,67)"/>
<path d="M0 0 C13.69090909 1.52121212 13.69090909 1.52121212 19.4375 7.5625 C22.20966997 11.88708515 22.50702451 15.98506666 22 21 C20.02074346 27.2502838 17.39730524 30.1126082 11.75 33.25 C9 34 9 34 0 34 C0 22.78 0 11.56 0 0 Z " fill="#1D0E2E" transform="translate(245,57)"/>
<path d="M0 0 C3.04773314 1.52386657 3.74638842 4.46078543 5.125 7.4375 C8.98491542 15.48120009 13.55461324 23.05204791 18.25 30.625 C18.60161194 31.19298309 18.95322388 31.76096619 19.31549072 32.34616089 C23.65969194 39.36108948 23.65969194 39.36108948 28.22558594 46.23193359 C30 49 30 49 30 51 C22.08 51 14.16 51 6 51 C4.48718645 41.91045917 3.51770624 32.94248496 2.9375 23.75 C2.78409002 21.34869012 2.6267673 18.94762582 2.46484375 16.546875 C2.399021 15.50370117 2.33319824 14.46052734 2.26538086 13.38574219 C2.25683864 11.04863912 2.25683864 11.04863912 1 10 C0.76712992 8.31816052 0.58735834 6.6287584 0.4375 4.9375 C0.35371094 4.01839844 0.26992188 3.09929687 0.18359375 2.15234375 C0.09271484 1.08693359 0.09271484 1.08693359 0 0 Z " fill="#201231" transform="translate(718,67)"/>
<path d="M0 0 C1.38822598 2.77645196 0.55767452 3.93693748 -0.33203125 6.890625 C-2.65000069 15.71922574 -3.06368473 24.6787923 -3.6875 33.75 C-3.81740009 35.52611209 -3.94825252 37.30215479 -4.08007812 39.078125 C-4.39945384 43.38467556 -4.69928926 47.6919454 -5 52 C-13.25 52 -21.5 52 -30 52 C-25.38112511 43.75847813 -20.58497973 35.68929309 -15.5625 27.6875 C-9.91841299 18.67693696 -4.80821526 9.4797629 0 0 Z " fill="#1F0E31" transform="translate(524,66)"/>
<path d="M0 0 C1.07177768 3.21533303 0.94413074 3.97685161 0.11572266 7.11303711 C-1.01351776 11.80813465 -1.51267114 16.38215462 -1.8515625 21.19140625 C-1.91532074 22.02212143 -1.97907898 22.85283661 -2.04476929 23.70872498 C-2.24427629 26.3262328 -2.43479621 28.94430145 -2.625 31.5625 C-2.7598193 33.35225864 -2.89523067 35.14197279 -3.03125 36.93164062 C-3.36210572 41.28723509 -3.68076283 45.64347674 -4 50 C-12.25 50 -20.5 50 -29 50 C-24.35899344 41.7189883 -19.54020998 33.60675081 -14.5 25.5625 C-9.28249122 17.22322448 -4.45770305 8.7672649 0 0 Z " fill="#200F33" transform="translate(150,68)"/>
</svg>
